# xmcd CD database file
#
# Track frame offsets:
#	150
#	12833
#	23263
#	36452
#	50646
#	65974
#	75285
#	79178
#	87283
#	101918
#	112344
#	118791
#	128913
#	148172
#	153450
#	166992
#	179545
#	194326
#	205573
#	214112
#	223226
#	231479
#
# Disc length: 3326 seconds
#
# Revision: 1
# Processed by: cddbd v1.5.2PL0 Copyright (c) Steve Scherf et al.
# Submitted via: CDex 1.51
#
DISCID=470cfc16
DTITLE=Yiruma, Chong Park - Spring Waltz(º½ÀÇ ¿ÐÃ÷) CD1
DYEAR=2006
DGENRE=New Age
TTITLE0=Spring waltz_ º½ÀÇ ¿ÐÃ÷ |Piano version| Yiruma
TTITLE1=Day Dream_ Chong Park
TTITLE2=Sunday afternoon waltz_ Chong Park
TTITLE3=Dreaming island's story_ ¼¶ÀÇ ÀÌ¾ß±â |Piano version| Yiruma
TTITLE4=Lost in island_ ÀÒ¾î¹ö¸° ¼¶ |Piano version| Yiruma
TTITLE5=A sad motive_ Chong Park
TTITLE6=Vivace_ broken blossoms | Yiruma
TTITLE7=Clementine 1_ to my little girl 1 | Yiruma
TTITLE8=I think you love me_ Chong Park
TTITLE9=Before the start..._º°ÀÌ Áö±â Àü¿¡ | Yiruma
TTITLE10=Dreaming island's story_ ¼¶ÀÇ ÀÌ¾ß±â |clarinet version| Yiruma
TTITLE11=Autumn-coloured spring 1_ °¡À»À» ´àÀº º½ 1 |guitar version| Yiruma
TTITLE12=Men's tears_ Chong Park
TTITLE13=Autumn-colored spring 2_ °¡À»À» ´àÀº º½ 2 |piano and guitar version| Yiruma
TTITLE14=Lost in island_ ÀÒ¾î¹ö¸° ¼¶ |string version| Yiruma
TTITLE15=Silence_ Chong Park
TTITLE16=³ÊÀÇ µÞ¸ð½À_ Chong Park
TTITLE17=Clementine 2_ to my little girl 2 | Yiruma
TTITLE18=Guten morgen_ Chong Park
TTITLE19=Spring waltz_ º½ÀÇ ¿ÐÃ÷ |h.i.s string version| Yiruma
TTITLE20=Clementine 3_ to my little girl 3 | Yiruma
TTITLE21=Lost in island_ ÀÒ¾î¹ö¸° ¼¶ |free version| Yiruma
EXTD=YEAR: 2006
EXTT0=
EXTT1=
EXTT2=
EXTT3=
EXTT4=
EXTT5=
EXTT6=
EXTT7=
EXTT8=
EXTT9=
EXTT10=
EXTT11=
EXTT12=
EXTT13=
EXTT14=
EXTT15=
EXTT16=
EXTT17=
EXTT18=
EXTT19=
EXTT20=
EXTT21=
PLAYORDER=
